<svg width="1280" height="720" xmlns="http://www.w3.org/2000/svg" xmlns:xlink="http://www.w3.org/1999/xlink" overflow="hidden"><g><rect x="0" y="0" width="1280" height="720" fill="#FFFFFF"/><g><g><g><path d="M269.925 244C269.925 300.851 223.838 346.938 166.988 346.938 110.137 346.938 64.05 300.851 64.05 244 64.05 187.149 110.137 141.062 166.988 141.062 223.838 141.062 269.925 187.149 269.925 244Z" fill="#A5A5A5" transform="matrix(1 0 0 1.00028 91 0)"/><path d="M202.062 403.362C202.062 422.734 186.359 438.438 166.988 438.438 147.616 438.438 131.912 422.734 131.912 403.362 131.912 383.991 147.616 368.288 166.988 368.288 186.359 368.288 202.062 383.991 202.062 403.362Z" fill="#A5A5A5" transform="matrix(1 0 0 1.00028 91 0)"/><path d="M202.062 84.6375C202.062 104.009 186.359 119.713 166.988 119.713 147.616 119.713 131.912 104.009 131.912 84.6375 131.912 65.2661 147.616 49.5625 166.988 49.5625 186.359 49.5625 202.062 65.2661 202.062 84.6375Z" fill="#A5A5A5" transform="matrix(1 0 0 1.00028 91 0)"/><path d="M953.888 311.862C953.888 331.234 938.184 346.938 918.812 346.938 899.441 346.938 883.737 331.234 883.737 311.862 883.737 292.491 899.441 276.788 918.812 276.788 938.184 276.788 953.888 292.491 953.888 311.862Z" fill="#A5A5A5" transform="matrix(1 0 0 1.00028 91 0)"/><path d="M1021.75 471.225C1021.75 528.076 975.663 574.162 918.812 574.162 861.962 574.162 815.875 528.076 815.875 471.225 815.875 414.374 861.962 368.288 918.812 368.288 975.663 368.288 1021.75 414.374 1021.75 471.225Z" fill="#A5A5A5" transform="matrix(1 0 0 1.00028 91 0)"/></g></g></g></g></svg>